<?xml version="1.0" encoding="iso-8859-1"?><!-- Generator: Adobe Illustrator 22.1.0, SVG Export Plug-In . SVG Version: 6.00 Build 0)  --><svg xmlns="http://www.w3.org/2000/svg" xmlns:xlink="http://www.w3.org/1999/xlink" viewBox="0 0 30 30" width="480px" height="480px"><g><path d="M18,13.586l2.678-2.678c-3.659-2.22-8.56-5.197-10.764-6.536L8.438,3.476C8.177,3.317,7.898,3.231,7.624,3.21L18,13.586z"/><path d="M6.04,4.454C6.019,4.568,6,4.682,6,4.805v20.504c0,0.086,0.018,0.166,0.03,0.248L16.586,15L6.04,4.454z"/><path d="M18,16.414L7.654,26.76c0.201-0.035,0.402-0.096,0.594-0.212c0.266-0.162,7.452-4.521,12.377-7.509L18,16.414z"/><path d="M25.174,13.629c-0.115-0.066-1.19-0.716-2.736-1.653L19.414,15l2.971,2.971c1.574-0.954,2.664-1.616,2.785-1.689c0.535-0.327,0.838-0.822,0.829-1.361C25.991,14.392,25.688,13.92,25.174,13.629z"/></g></svg>